{"asset":{"version":"2.0","generator":"Blockbench 4.9.2 glTF exporter"},"scenes":[{"nodes":[7],"name":"blockbench_export"}],"scene":0,"nodes":[{"translation":[0,0,1.5],"name":"tail2"},{"translation":[0,0,1.5],"name":"tail1","children":[0]},{"translation":[0.005547111539411428,0.4999692286066907,2],"name":"body2","children":[1]},{"translation":[0.022188446157645713,1.9998769144267627,1.375],"name":"finT"},{"translation":[-1.002712012983087,-0.2388903912245225,1.25],"name":"finL"},{"translation":[0.9971649014436756,-0.2610788373821682,1.25],"name":"finR"},{"name":"body1","children":[2,3,4,5]},{"rotation":[0,0,-0.005547196887556599,0.9999846141849837],"translation":[0,0.5,-1],"name":"body1","mesh":0,"children":[6],"skin":0}],"bufferViews":[{"buffer":0,"byteOffset":0,"byteLength":2016,"target":34962,"byteStride":12},{"buffer":0,"byteOffset":2016,"byteLength":2016,"target":34962,"byteStride":12},{"buffer":0,"byteOffset":4032,"byteLength":1344,"target":34962,"byteStride":8},{"buffer":0,"byteOffset":5376,"byteLength":1344,"target":34962,"byteStride":8},{"buffer":0,"byteOffset":6720,"byteLength":2688,"target":34962,"byteStride":16},{"buffer":0,"byteOffset":9408,"byteLength":504,"target":34963},{"buffer":0,"byteOffset":9912,"byteLength":448},{"buffer":0,"byteOffset":10360,"byteLength":168},{"buffer":0,"byteOffset":10528,"byteLength":672},{"buffer":0,"byteOffset":11200,"byteLength":168},{"buffer":0,"byteOffset":11368,"byteLength":672},{"buffer":0,"byteOffset":12040,"byteLength":168},{"buffer":0,"byteOffset":12208,"byteLength":672},{"buffer":0,"byteOffset":12880,"byteLength":168},{"buffer":0,"byteOffset":13048,"byteLength":672},{"buffer":0,"byteOffset":13720,"byteLength":72},{"buffer":0,"byteOffset":13792,"byteLength":288},{"buffer":0,"byteOffset":14080,"byteLength":72},{"buffer":0,"byteOffset":14152,"byteLength":288},{"buffer":0,"byteOffset":14440,"byteLength":68},{"buffer":0,"byteOffset":14508,"byteLength":272},{"buffer":0,"byteOffset":14780,"byteLength":68},{"buffer":0,"byteOffset":14848,"byteLength":272},{"buffer":0,"byteOffset":15120,"byteLength":68},{"buffer":0,"byteOffset":15188,"byteLength":272},{"buffer":0,"byteOffset":15460,"byteLength":68},{"buffer":0,"byteOffset":15528,"byteLength":272},{"buffer":0,"byteOffset":15800,"byteLength":68},{"buffer":0,"byteOffset":15868,"byteLength":272},{"buffer":0,"byteOffset":16140,"byteLength":68},{"buffer":0,"byteOffset":16208,"byteLength":272},{"buffer":0,"byteOffset":16480,"byteLength":68},{"buffer":0,"byteOffset":16548,"byteLength":272},{"buffer":0,"byteOffset":16820,"byteLength":68},{"buffer":0,"byteOffset":16888,"byteLength":272}],"buffers":[{"byteLength":17160,"uri":"data:application/octet-stream;base64,"}],"accessors":[{"bufferView":0,"componentType":5126,"count":168,"max":[3,2.5,7],"min":[-3,-0.5,-2],"type":"VEC3"},{"bufferView":1,"componentType":5126,"count":168,"max":[1,1,1],"min":[-1,-1,-1],"type":"VEC3"},{"bufferView":2,"componentType":5126,"count":168,"max":[0.78125,0.734375],"min":[0,0],"type":"VEC2"},{"bufferView":3,"componentType":5123,"count":168,"max":[0,6,0,0],"min":[0,0,0,0],"type":"VEC4"},{"bufferView":4,"componentType":5126,"count":168,"max":[0,1,0,0],"min":[0,1,0,0],"type":"VEC4"},{"bufferView":5,"componentType":5123,"count":252,"max":[167],"min":[0],"type":"SCALAR"},{"bufferView":6,"componentType":5126,"count":7,"max":[1,0,0,0,0,1,0,0,0,0,1,0,1.0027120113372803,0.2610788345336914,0,1],"min":[1,0,0,0,0,1,0,0,0,0,1,0,-0.9971649050712585,-1.999876856803894,-5,1],"type":"MAT4"},{"bufferView":7,"componentType":5126,"count":42,"max":[2.125],"min":[0],"type":"SCALAR"},{"bufferView":8,"componentType":5126,"count":42,"max":[0.1261027753353119,0,0.03489949554204941,1],"min":[-0.1261027753353119,0,-0.03489949554204941,0.9920172095298767],"type":"VEC4"},{"bufferView":9,"componentType":5126,"count":42,"max":[2.125],"min":[0],"type":"SCALAR"},{"bufferView":10,"componentType":5126,"count":42,"max":[0.13052618503570557,0,0.03489949554204941,1],"min":[-0.1261027753353119,0,-0.03489949554204941,0.9914448857307434],"type":"VEC4"},{"bufferView":11,"componentType":5126,"count":42,"max":[2.125],"min":[0],"type":"SCALAR"},{"bufferView":12,"componentType":5126,"count":42,"max":[0.13052618503570557,0,0.017452405765652657,1],"min":[-0.1261027753353119,0,-0.017452405765652657,0.9914448857307434],"type":"VEC4"},{"bufferView":13,"componentType":5126,"count":42,"max":[2.125],"min":[0],"type":"SCALAR"},{"bufferView":14,"componentType":5126,"count":42,"max":[0.13052618503570557,0,0.017452405765652657,1],"min":[-0.1261027753353119,0,-0.017452405765652657,0.9914448857307434],"type":"VEC4"},{"bufferView":15,"componentType":5126,"count":18,"max":[1.0416666269302368],"min":[0],"type":"SCALAR"},{"bufferView":16,"componentType":5126,"count":18,"max":[0,0,0.25019222497940063,1],"min":[0,0,-0.25019222497940063,0.9681962132453918],"type":"VEC4"},{"bufferView":17,"componentType":5126,"count":18,"max":[1.0416666269302368],"min":[0],"type":"SCALAR"},{"bufferView":18,"componentType":5126,"count":18,"max":[0,0,0.25019222497940063,1],"min":[0,0,-0.25019222497940063,0.9681962132453918],"type":"VEC4"},{"bufferView":19,"componentType":5126,"count":17,"max":[1],"min":[0],"type":"SCALAR"},{"bufferView":20,"componentType":5126,"count":17,"max":[0.1261027753353119,0,0,1],"min":[-0.1261027753353119,0,0,0.9920172095298767],"type":"VEC4"},{"bufferView":21,"componentType":5126,"count":17,"max":[1],"min":[0],"type":"SCALAR"},{"bufferView":22,"componentType":5126,"count":17,"max":[0.13052618503570557,0,0,0.9994261264801025],"min":[-0.1261027753353119,0,0,0.9914448857307434],"type":"VEC4"},{"bufferView":23,"componentType":5126,"count":17,"max":[1],"min":[0],"type":"SCALAR"},{"bufferView":24,"componentType":5126,"count":17,"max":[0.13052618503570557,0,0,0.9994261264801025],"min":[-0.1261027753353119,0,0,0.9914448857307434],"type":"VEC4"},{"bufferView":25,"componentType":5126,"count":17,"max":[1],"min":[0],"type":"SCALAR"},{"bufferView":26,"componentType":5126,"count":17,"max":[0.13052618503570557,0,0,0.9994261264801025],"min":[-0.1261027753353119,0,0,0.9914448857307434],"type":"VEC4"},{"bufferView":27,"componentType":5126,"count":17,"max":[1],"min":[0],"type":"SCALAR"},{"bufferView":28,"componentType":5126,"count":17,"max":[0,0,0.0337107852101326,1],"min":[0,0,-0.0337107852101326,0.9994316101074219],"type":"VEC4"},{"bufferView":29,"componentType":5126,"count":17,"max":[1],"min":[0],"type":"SCALAR"},{"bufferView":30,"componentType":5126,"count":17,"max":[0,0,0.0337107852101326,1],"min":[0,0,-0.0337107852101326,0.9994316101074219],"type":"VEC4"},{"bufferView":31,"componentType":5126,"count":17,"max":[1],"min":[0],"type":"SCALAR"},{"bufferView":32,"componentType":5126,"count":17,"max":[0,0,0.01685778796672821,1],"min":[0,0,-0.01685778796672821,0.9998579025268555],"type":"VEC4"},{"bufferView":33,"componentType":5126,"count":17,"max":[1],"min":[0],"type":"SCALAR"},{"bufferView":34,"componentType":5126,"count":17,"max":[0,0,0.01685778796672821,1],"min":[0,0,-0.01685778796672821,0.9998579025268555],"type":"VEC4"}],"materials":[{"pbrMetallicRoughness":{"metallicFactor":0,"roughnessFactor":1,"baseColorTexture":{"index":0}},"alphaMode":"MASK","alphaCutoff":0.05,"doubleSided":true}],"textures":[{"sampler":0,"source":0}],"samplers":[{"magFilter":9728,"minFilter":9728,"wrapS":33071,"wrapT":33071}],"images":[{"mimeType":"image/png","uri":"data:image/png;base64,"}],"meshes":[{"primitives":[{"mode":4,"attributes":{"POSITION":0,"NORMAL":1,"TEXCOORD_0":2,"JOINTS_0":3,"WEIGHTS_0":4},"indices":5,"material":0}]}],"skins":[{"inverseBindMatrices":6,"joints":[6,2,1,0,3,4,5],"skeleton":6}],"animations":[{"name":"all","samplers":[{"input":7,"output":8,"interpolation":"STEP"},{"input":9,"output":10,"interpolation":"STEP"},{"input":11,"output":12,"interpolation":"STEP"},{"input":13,"output":14,"interpolation":"STEP"},{"input":15,"output":16,"interpolation":"STEP"},{"input":17,"output":18,"interpolation":"STEP"}],"channels":[{"sampler":0,"target":{"node":6,"path":"rotation"}},{"sampler":1,"target":{"node":2,"path":"rotation"}},{"sampler":2,"target":{"node":1,"path":"rotation"}},{"sampler":3,"target":{"node":0,"path":"rotation"}},{"sampler":4,"target":{"node":4,"path":"rotation"}},{"sampler":5,"target":{"node":5,"path":"rotation"}}]},{"name":"swim","samplers":[{"input":19,"output":20,"interpolation":"LINEAR"},{"input":21,"output":22,"interpolation":"LINEAR"},{"input":23,"output":24,"interpolation":"LINEAR"},{"input":25,"output":26,"interpolation":"LINEAR"}],"channels":[{"sampler":0,"target":{"node":6,"path":"rotation"}},{"sampler":1,"target":{"node":2,"path":"rotation"}},{"sampler":2,"target":{"node":1,"path":"rotation"}},{"sampler":3,"target":{"node":0,"path":"rotation"}}]},{"name":"roll","samplers":[{"input":27,"output":28,"interpolation":"LINEAR"},{"input":29,"output":30,"interpolation":"LINEAR"},{"input":31,"output":32,"interpolation":"LINEAR"},{"input":33,"output":34,"interpolation":"LINEAR"}],"channels":[{"sampler":0,"target":{"node":6,"path":"rotation"}},{"sampler":1,"target":{"node":2,"path":"rotation"}},{"sampler":2,"target":{"node":1,"path":"rotation"}},{"sampler":3,"target":{"node":0,"path":"rotation"}}]}]}