{"asset":{"version":"2.0","generator":"Blockbench 4.9.2 glTF exporter"},"scenes":[{"nodes":[4],"name":"blockbench_export"}],"scene":0,"nodes":[{"translation":[0,0,1.5],"name":"tail2"},{"translation":[0,0,1.5],"name":"tail1","children":[0]},{"translation":[0,0,2],"name":"body2","children":[1]},{"name":"body1","children":[2]},{"rotation":[0,0,0.024680176807710678,0.9996953980451946],"translation":[0,1,-1],"name":"body1","mesh":0,"children":[3],"skin":0}],"bufferViews":[{"buffer":0,"byteOffset":0,"byteLength":1152,"target":34962,"byteStride":12},{"buffer":0,"byteOffset":1152,"byteLength":1152,"target":34962,"byteStride":12},{"buffer":0,"byteOffset":2304,"byteLength":768,"target":34962,"byteStride":8},{"buffer":0,"byteOffset":3072,"byteLength":768,"target":34962,"byteStride":8},{"buffer":0,"byteOffset":3840,"byteLength":1536,"target":34962,"byteStride":16},{"buffer":0,"byteOffset":5376,"byteLength":288,"target":34963},{"buffer":0,"byteOffset":5664,"byteLength":256},{"buffer":0,"byteOffset":5920,"byteLength":168},{"buffer":0,"byteOffset":6088,"byteLength":672},{"buffer":0,"byteOffset":6760,"byteLength":168},{"buffer":0,"byteOffset":6928,"byteLength":672},{"buffer":0,"byteOffset":7600,"byteLength":168},{"buffer":0,"byteOffset":7768,"byteLength":672},{"buffer":0,"byteOffset":8440,"byteLength":168},{"buffer":0,"byteOffset":8608,"byteLength":672},{"buffer":0,"byteOffset":9280,"byteLength":68},{"buffer":0,"byteOffset":9348,"byteLength":272},{"buffer":0,"byteOffset":9620,"byteLength":68},{"buffer":0,"byteOffset":9688,"byteLength":272},{"buffer":0,"byteOffset":9960,"byteLength":68},{"buffer":0,"byteOffset":10028,"byteLength":272},{"buffer":0,"byteOffset":10300,"byteLength":68},{"buffer":0,"byteOffset":10368,"byteLength":272},{"buffer":0,"byteOffset":10640,"byteLength":68},{"buffer":0,"byteOffset":10708,"byteLength":272},{"buffer":0,"byteOffset":10980,"byteLength":68},{"buffer":0,"byteOffset":11048,"byteLength":272},{"buffer":0,"byteOffset":11320,"byteLength":68},{"buffer":0,"byteOffset":11388,"byteLength":272},{"buffer":0,"byteOffset":11660,"byteLength":68},{"buffer":0,"byteOffset":11728,"byteLength":272}],"buffers":[{"byteLength":12000,"uri":"data:application/octet-stream;base64,"}],"accessors":[{"bufferView":0,"componentType":5126,"count":96,"max":[1.5143846273422241,1,7],"min":[-1.5143846273422241,-1,-2],"type":"VEC3"},{"bufferView":1,"componentType":5126,"count":96,"max":[1,1,1],"min":[-1,-1,-1],"type":"VEC3"},{"bufferView":2,"componentType":5126,"count":96,"max":[0.6875,0.59375],"min":[0,0],"type":"VEC2"},{"bufferView":3,"componentType":5123,"count":96,"max":[0,3,0,0],"min":[0,0,0,0],"type":"VEC4"},{"bufferView":4,"componentType":5126,"count":96,"max":[0,1,0,0],"min":[0,1,0,0],"type":"VEC4"},{"bufferView":5,"componentType":5123,"count":144,"max":[95],"min":[0],"type":"SCALAR"},{"bufferView":6,"componentType":5126,"count":4,"max":[1,0,0,0,0,1,0,0,0,0,1,0,0,0,0,1],"min":[1,0,0,0,0,1,0,0,0,0,1,0,0,0,-5,1],"type":"MAT4"},{"bufferView":7,"componentType":5126,"count":42,"max":[2.125],"min":[0],"type":"SCALAR"},{"bufferView":8,"componentType":5126,"count":42,"max":[0.1261027753353119,0,0.03489949554204941,1],"min":[-0.1261027753353119,0,-0.03489949554204941,0.9920172095298767],"type":"VEC4"},{"bufferView":9,"componentType":5126,"count":42,"max":[2.125],"min":[0],"type":"SCALAR"},{"bufferView":10,"componentType":5126,"count":42,"max":[0.13052618503570557,0,0.03489949554204941,1],"min":[-0.1261027753353119,0,-0.03489949554204941,0.9914448857307434],"type":"VEC4"},{"bufferView":11,"componentType":5126,"count":42,"max":[2.125],"min":[0],"type":"SCALAR"},{"bufferView":12,"componentType":5126,"count":42,"max":[0.13052618503570557,0,0.017452405765652657,1],"min":[-0.1261027753353119,0,-0.017452405765652657,0.9914448857307434],"type":"VEC4"},{"bufferView":13,"componentType":5126,"count":42,"max":[2.125],"min":[0],"type":"SCALAR"},{"bufferView":14,"componentType":5126,"count":42,"max":[0.13052618503570557,0,0.017452405765652657,1],"min":[-0.1261027753353119,0,-0.017452405765652657,0.9914448857307434],"type":"VEC4"},{"bufferView":15,"componentType":5126,"count":17,"max":[1],"min":[0],"type":"SCALAR"},{"bufferView":16,"componentType":5126,"count":17,"max":[0.1261027753353119,0,0,1],"min":[-0.1261027753353119,0,0,0.9920172095298767],"type":"VEC4"},{"bufferView":17,"componentType":5126,"count":17,"max":[1],"min":[0],"type":"SCALAR"},{"bufferView":18,"componentType":5126,"count":17,"max":[0.13052618503570557,0,0,0.9994261264801025],"min":[-0.1261027753353119,0,0,0.9914448857307434],"type":"VEC4"},{"bufferView":19,"componentType":5126,"count":17,"max":[1],"min":[0],"type":"SCALAR"},{"bufferView":20,"componentType":5126,"count":17,"max":[0.13052618503570557,0,0,0.9994261264801025],"min":[-0.1261027753353119,0,0,0.9914448857307434],"type":"VEC4"},{"bufferView":21,"componentType":5126,"count":17,"max":[1],"min":[0],"type":"SCALAR"},{"bufferView":22,"componentType":5126,"count":17,"max":[0.13052618503570557,0,0,0.9994261264801025],"min":[-0.1261027753353119,0,0,0.9914448857307434],"type":"VEC4"},{"bufferView":23,"componentType":5126,"count":17,"max":[1],"min":[0],"type":"SCALAR"},{"bufferView":24,"componentType":5126,"count":17,"max":[0,0,0.0337107852101326,1],"min":[0,0,-0.0337107852101326,0.9994316101074219],"type":"VEC4"},{"bufferView":25,"componentType":5126,"count":17,"max":[1],"min":[0],"type":"SCALAR"},{"bufferView":26,"componentType":5126,"count":17,"max":[0,0,0.0337107852101326,1],"min":[0,0,-0.0337107852101326,0.9994316101074219],"type":"VEC4"},{"bufferView":27,"componentType":5126,"count":17,"max":[1],"min":[0],"type":"SCALAR"},{"bufferView":28,"componentType":5126,"count":17,"max":[0,0,0.01685778796672821,1],"min":[0,0,-0.01685778796672821,0.9998579025268555],"type":"VEC4"},{"bufferView":29,"componentType":5126,"count":17,"max":[1],"min":[0],"type":"SCALAR"},{"bufferView":30,"componentType":5126,"count":17,"max":[0,0,0.01685778796672821,1],"min":[0,0,-0.01685778796672821,0.9998579025268555],"type":"VEC4"}],"materials":[{"pbrMetallicRoughness":{"metallicFactor":0,"roughnessFactor":1,"baseColorTexture":{"index":0}},"alphaMode":"MASK","alphaCutoff":0.05,"doubleSided":true}],"textures":[{"sampler":0,"source":0}],"samplers":[{"magFilter":9728,"minFilter":9728,"wrapS":33071,"wrapT":33071}],"images":[{"mimeType":"image/png","uri":"data:image/png;base64,"}],"meshes":[{"primitives":[{"mode":4,"attributes":{"POSITION":0,"NORMAL":1,"TEXCOORD_0":2,"JOINTS_0":3,"WEIGHTS_0":4},"indices":5,"material":0}]}],"skins":[{"inverseBindMatrices":6,"joints":[3,2,1,0],"skeleton":3}],"animations":[{"name":"all","samplers":[{"input":7,"output":8,"interpolation":"STEP"},{"input":9,"output":10,"interpolation":"STEP"},{"input":11,"output":12,"interpolation":"STEP"},{"input":13,"output":14,"interpolation":"STEP"}],"channels":[{"sampler":0,"target":{"node":3,"path":"rotation"}},{"sampler":1,"target":{"node":2,"path":"rotation"}},{"sampler":2,"target":{"node":1,"path":"rotation"}},{"sampler":3,"target":{"node":0,"path":"rotation"}}]},{"name":"swim","samplers":[{"input":15,"output":16,"interpolation":"LINEAR"},{"input":17,"output":18,"interpolation":"LINEAR"},{"input":19,"output":20,"interpolation":"LINEAR"},{"input":21,"output":22,"interpolation":"LINEAR"}],"channels":[{"sampler":0,"target":{"node":3,"path":"rotation"}},{"sampler":1,"target":{"node":2,"path":"rotation"}},{"sampler":2,"target":{"node":1,"path":"rotation"}},{"sampler":3,"target":{"node":0,"path":"rotation"}}]},{"name":"roll","samplers":[{"input":23,"output":24,"interpolation":"LINEAR"},{"input":25,"output":26,"interpolation":"LINEAR"},{"input":27,"output":28,"interpolation":"LINEAR"},{"input":29,"output":30,"interpolation":"LINEAR"}],"channels":[{"sampler":0,"target":{"node":3,"path":"rotation"}},{"sampler":1,"target":{"node":2,"path":"rotation"}},{"sampler":2,"target":{"node":1,"path":"rotation"}},{"sampler":3,"target":{"node":0,"path":"rotation"}}]}]}