{"asset":{"version":"2.0","generator":"Blockbench 4.9.2 glTF exporter"},"scenes":[{"nodes":[8],"name":"blockbench_export"}],"scene":0,"nodes":[{"translation":[0,-0.0625,-0.0625],"name":"body1","mesh":0},{"translation":[0,0,-0.046875],"name":"body2","mesh":1},{"translation":[0,0,-0.046875],"name":"tail1","mesh":2},{"translation":[0,1.3877787807814457e-17,-0.0625],"name":"tail2","mesh":3},{"translation":[0,0,-0.09375],"name":"tail2","children":[3]},{"translation":[0,0,-0.09375],"name":"tail1","children":[2,4]},{"translation":[0,0,-0.125],"name":"body2","children":[1,5]},{"translation":[0,0.0625,0.0625],"name":"body1","children":[0,6]},{"children":[7]}],"bufferViews":[{"buffer":0,"byteOffset":0,"byteLength":288,"target":34962,"byteStride":12},{"buffer":0,"byteOffset":288,"byteLength":288,"target":34962,"byteStride":12},{"buffer":0,"byteOffset":576,"byteLength":192,"target":34962,"byteStride":8},{"buffer":0,"byteOffset":768,"byteLength":72,"target":34963},{"buffer":0,"byteOffset":840,"byteLength":288,"target":34962,"byteStride":12},{"buffer":0,"byteOffset":1128,"byteLength":288,"target":34962,"byteStride":12},{"buffer":0,"byteOffset":1416,"byteLength":192,"target":34962,"byteStride":8},{"buffer":0,"byteOffset":1608,"byteLength":72,"target":34963},{"buffer":0,"byteOffset":1680,"byteLength":288,"target":34962,"byteStride":12},{"buffer":0,"byteOffset":1968,"byteLength":288,"target":34962,"byteStride":12},{"buffer":0,"byteOffset":2256,"byteLength":192,"target":34962,"byteStride":8},{"buffer":0,"byteOffset":2448,"byteLength":72,"target":34963},{"buffer":0,"byteOffset":2520,"byteLength":288,"target":34962,"byteStride":12},{"buffer":0,"byteOffset":2808,"byteLength":288,"target":34962,"byteStride":12},{"buffer":0,"byteOffset":3096,"byteLength":192,"target":34962,"byteStride":8},{"buffer":0,"byteOffset":3288,"byteLength":72,"target":34963},{"buffer":0,"byteOffset":3360,"byteLength":64},{"buffer":0,"byteOffset":3424,"byteLength":256},{"buffer":0,"byteOffset":3680,"byteLength":64},{"buffer":0,"byteOffset":3744,"byteLength":256},{"buffer":0,"byteOffset":4000,"byteLength":64},{"buffer":0,"byteOffset":4064,"byteLength":256},{"buffer":0,"byteOffset":4320,"byteLength":64},{"buffer":0,"byteOffset":4384,"byteLength":256}],"buffers":[{"byteLength":4640,"uri":"data:application/octet-stream;base64,"}],"accessors":[{"bufferView":0,"componentType":5126,"count":24,"max":[0.0625,0.125,0.1875],"min":[-0.0625,0,-0.0625],"type":"VEC3"},{"bufferView":1,"componentType":5126,"count":24,"max":[1,1,1],"min":[-1,-1,-1],"type":"VEC3"},{"bufferView":2,"componentType":5126,"count":24,"max":[0.5,0.5],"min":[0,0],"type":"VEC2"},{"bufferView":3,"componentType":5123,"count":36,"max":[23],"min":[0],"type":"SCALAR"},{"bufferView":4,"componentType":5126,"count":24,"max":[0.046875,0.046875,0.046875],"min":[-0.046875,-0.046875,-0.046875],"type":"VEC3"},{"bufferView":5,"componentType":5126,"count":24,"max":[1,1,1],"min":[-1,-1,-1],"type":"VEC3"},{"bufferView":6,"componentType":5126,"count":24,"max":[0.1875,0.1875],"min":[0,0],"type":"VEC2"},{"bufferView":7,"componentType":5123,"count":36,"max":[23],"min":[0],"type":"SCALAR"},{"bufferView":8,"componentType":5126,"count":24,"max":[0.03125,0.03125,0.046875],"min":[-0.03125,-0.03125,-0.046875],"type":"VEC3"},{"bufferView":9,"componentType":5126,"count":24,"max":[1,1,1],"min":[-1,-1,-1],"type":"VEC3"},{"bufferView":10,"componentType":5126,"count":24,"max":[0.1875,0.1875],"min":[0,0],"type":"VEC2"},{"bufferView":11,"componentType":5123,"count":36,"max":[23],"min":[0],"type":"SCALAR"},{"bufferView":12,"componentType":5126,"count":24,"max":[0.09375,0.015625,0.0625],"min":[-0.09375,-0.015625,-0.0625],"type":"VEC3"},{"bufferView":13,"componentType":5126,"count":24,"max":[1,1,1],"min":[-1,-1,-1],"type":"VEC3"},{"bufferView":14,"componentType":5126,"count":24,"max":[0.375,0.25],"min":[0,0],"type":"VEC2"},{"bufferView":15,"componentType":5123,"count":36,"max":[23],"min":[0],"type":"SCALAR"},{"bufferView":16,"componentType":5126,"count":16,"max":[0.9583333134651184],"min":[0],"type":"SCALAR"},{"bufferView":17,"componentType":5126,"count":16,"max":[0.20917607843875885,0,0,1],"min":[-0.20917607843875885,0,0,0.9778779745101929],"type":"VEC4"},{"bufferView":18,"componentType":5126,"count":16,"max":[0.9583333134651184],"min":[0],"type":"SCALAR"},{"bufferView":19,"componentType":5126,"count":16,"max":[0.2164396196603775,0,0,0.9984062314033508],"min":[-0.20917607843875885,0,0,0.9762960076332092],"type":"VEC4"},{"bufferView":20,"componentType":5126,"count":16,"max":[0.9583333134651184],"min":[0],"type":"SCALAR"},{"bufferView":21,"componentType":5126,"count":16,"max":[0.20917607843875885,0,0,1],"min":[-0.20917607843875885,0,0,0.9778779745101929],"type":"VEC4"},{"bufferView":22,"componentType":5126,"count":16,"max":[0.9583333134651184],"min":[0],"type":"SCALAR"},{"bufferView":23,"componentType":5126,"count":16,"max":[0.2164396196603775,0,0,0.9984062314033508],"min":[-0.20917607843875885,0,0,0.9762960076332092],"type":"VEC4"}],"materials":[{"pbrMetallicRoughness":{"metallicFactor":0,"roughnessFactor":1},"alphaMode":"MASK","alphaCutoff":0.05,"doubleSided":true},{"pbrMetallicRoughness":{"metallicFactor":0,"roughnessFactor":1},"alphaMode":"MASK","alphaCutoff":0.05,"doubleSided":true},{"pbrMetallicRoughness":{"metallicFactor":0,"roughnessFactor":1},"alphaMode":"MASK","alphaCutoff":0.05,"doubleSided":true},{"pbrMetallicRoughness":{"metallicFactor":0,"roughnessFactor":1},"alphaMode":"MASK","alphaCutoff":0.05,"doubleSided":true}],"meshes":[{"primitives":[{"mode":4,"attributes":{"POSITION":0,"NORMAL":1,"TEXCOORD_0":2},"indices":3,"material":0}]},{"primitives":[{"mode":4,"attributes":{"POSITION":4,"NORMAL":5,"TEXCOORD_0":6},"indices":7,"material":1}]},{"primitives":[{"mode":4,"attributes":{"POSITION":8,"NORMAL":9,"TEXCOORD_0":10},"indices":11,"material":2}]},{"primitives":[{"mode":4,"attributes":{"POSITION":12,"NORMAL":13,"TEXCOORD_0":14},"indices":15,"material":3}]}],"animations":[{"name":"swim_fast","samplers":[{"input":16,"output":17,"interpolation":"LINEAR"},{"input":18,"output":19,"interpolation":"LINEAR"},{"input":20,"output":21,"interpolation":"LINEAR"},{"input":22,"output":23,"interpolation":"LINEAR"}],"channels":[{"sampler":0,"target":{"node":7,"path":"rotation"}},{"sampler":1,"target":{"node":6,"path":"rotation"}},{"sampler":2,"target":{"node":5,"path":"rotation"}},{"sampler":3,"target":{"node":4,"path":"rotation"}}]}]}